<svg xmlns="http://www.w3.org/2000/svg" width="38" height="38" viewBox="0 0 38 38">
    <style>
        @media (prefers-color-scheme: dark) {
        .plain { fill: #ffffff; }
        .grad{ fill: url(#pxz13txyxa)}
        }
        @media (prefers-color-scheme: light) {
        .plain { fill: #000000; }
        .grad{ fill: url(#pxz13txyxb)}
        }
    </style>
    <defs>
        <linearGradient id="pxz13txyxa" x1="50%" x2="40.501%" y1="25.205%" y2="69.887%">
            <stop offset="0%" stop-color="#FFF" stop-opacity="0"/>
            <stop offset="100%" stop-color="#FFF"/>
        </linearGradient>
        <linearGradient id="pxz13txyxb" x1="50%" x2="40.501%" y1="25.205%" y2="69.887%">
            <stop offset="0%" stop-color="#000" stop-opacity="0"/>
            <stop offset="100%" stop-color="#000"/>
        </linearGradient>
    </defs>
    <g fill="none" fill-rule="evenodd">
        <g>
            <g>
                <g>
                    <path fill="#FFF" class="plain" d="M12.553.008c2.206.002 3.994 1.79 3.996 3.996l.028 29.6c.002 2.2-1.78 3.986-3.98 3.988h-.008c-2.206-.002-3.993-1.79-3.996-3.996l-.028-29.6c-.002-2.2 1.78-3.986 3.98-3.988h.008z" transform="translate(-80 -20) translate(80 20) translate(.298 .2) rotate(25 12.571 18.8)"/>
                    <path fill="url(#pxz13txyxa)" class="grad"  d="M25.122.008c2.206.002 3.993 1.79 3.995 3.996l.029 29.6c.002 2.2-1.78 3.986-3.98 3.988h-.008c-2.206-.002-3.994-1.79-3.996-3.996l-.028-29.6c-.002-2.2 1.78-3.986 3.98-3.988h.008z" transform="translate(-80 -20) translate(80 20) translate(.298 .2) scale(-1 1) rotate(25 0 -94.598)"/>
                </g>
            </g>
        </g>
    </g>
</svg>
