<svg xmlns="http://www.w3.org/2000/svg" width="148" height="45" viewBox="0 0 148 45">
    <g fill="none" fill-rule="evenodd">
        <g stroke="#FFF">
            <g>
                <path d="M1.173 8.287C.656 10.967.143 13.759.835 16.4c.692 2.64 2.967 5.075 5.678 4.985 2.519-.084 4.558-2.313 5.272-4.744.714-2.432.396-5.033.072-7.548.982 9.192.515 18.538-1.374 27.585-.521 2.495-1.342 5.234-3.542 6.499-2.2 1.264-5.835-.525-5.158-2.982M20.234 14.175L29.319 14.175M20.688 19.659L29.543 19.659M43.534 12.818c-.053-1.218-1.575-1.91-2.741-1.58-1.165.331-2.014 1.315-2.79 2.251-.802.97-1.62 1.962-2.063 3.142-.443 1.18-.451 2.604.297 3.615.945 1.28 2.889 1.514 4.297.786s2.31-2.213 2.706-3.756c.397-1.542.355-3.16.31-4.752.047 1.138-.24 2.26-.462 3.377-.224 1.117-.387 2.285-.1 3.387.29 1.102 1.13 2.128 2.247 2.31 1.118.181 2.37-.778 2.237-1.91M49.05 11.113c2.536-.095 5 1.84 5.522 4.34.524 2.498-.954 5.27-3.312 6.213M59.725 11.43c-2.669-.009-4.996 2.742-4.562 5.393.435 2.65 3.517 4.502 6.041 3.63M104.191 10.776c2.535-.096 5 1.84 5.522 4.34.524 2.498-.954 5.27-3.312 6.212M114.865 11.093c-2.668-.01-4.995 2.743-4.561 5.393.435 2.649 3.517 4.502 6.04 3.63M63.767 3.267c.577-.729 1.845-.502 2.39.252.544.755.508 1.794.247 2.69-.509 1.737-1.737 3.154-2.93 4.511l5.322.52M73.127 14.642L85.854 14.175M79.32 6.643l.227 4.936v10.087M118.963 14.642L131.69 14.175M125.157 6.643c.076 1.645.15 3.29.228 4.936v10.087M94.826.018c.1 2.855.149 5.712.249 8.567V21.38M95.075 11.406c1.872-.652 4.12.008 5.35 1.57 1.23 1.563 1.357 3.916.299 5.602-1.058 1.686-3.222 2.583-5.154 2.137M135.172 7.894c1.572 1.754 1.518 4.377 1.656 6.736.14 2.36.882 5.107 3.089 5.915 1.645.603 3.583-.223 4.61-1.65 1.029-1.428 1.256-3.314.997-5.057-.26-1.743-.962-3.383-1.655-5 1.537 6.251 1.82 12.815.822 19.178-.358 2.28-1.08 4.814-3.114 5.88-1.224.643-2.784.581-3.954-.154-1.171-.735-1.91-2.119-1.875-3.507" transform="translate(-1087 -216) translate(1088 216)"/>
            </g>
        </g>
    </g>
</svg>
