<svg xmlns="http://www.w3.org/2000/svg" width="199" height="134" viewBox="0 0 199 134">
    <g fill="none" fill-rule="evenodd">
        <g stroke="#FFF">
            <g>
                <path d="M148.958 48.77c3.269 6.666 7.265 12.844 11.288 17.504 3.968 4.596 9.401 8.865 15.441 8.234 6.5-.68 10.768-7.207 11.947-13.637 1.507-8.213-3.152-23.267-6.054-29.123-6.937-13.999-18.43-32.96-32.789-25.887M148.791 5.86c-10.252 5.957-8.604 21.95-2.47 37.032" transform="translate(-709 -274) translate(710 275)"/>
                <path d="M180.506 72.81c6.945 0 17.303-9.331 16.976-21.396-.171-6.342-1.087-12.457-4.376-20.215-8.433-19.897-29.296-43.284-47.563-22.713M8.476 105.763c3.27 6.666 7.265 12.844 11.288 17.504 3.969 4.595 9.402 8.865 15.44 8.233 6.502-.679 10.769-7.206 11.949-13.636C48.659 109.65 44 94.597 41.098 88.74c-6.936-13.998-18.43-32.96-32.79-25.886M8.309 62.854c-10.252 5.955-10.814 19.629.167 42.909" transform="translate(-709 -274) translate(710 275)"/>
                <path d="M40.023 129.804c6.946 0 17.303-9.332 16.977-21.397-.172-6.342-1.087-12.457-4.376-20.216C44.19 68.295 23.327 44.908 5.06 65.479M49.108 81.154L158.992 37.919" transform="translate(-709 -274) translate(710 275)"/>
                <path d="M52.17 86.181c-.148.145-.23.4-.42.474L161.258 43.69" transform="translate(-709 -274) translate(710 275)"/>
                <path d="M158.442 38.135c1.402-.331 2.926.75 3.504 1.97.578 1.223.1 2.963-1.16 3.77" transform="translate(-709 -274) translate(710 275)"/>
            </g>
        </g>
    </g>
</svg>
