<svg xmlns="http://www.w3.org/2000/svg" width="76" height="106" viewBox="0 0 76 106">
    <g fill="none" fill-rule="evenodd">
        <g>
            <g>
                <path stroke="#FFF" stroke-width=".75" d="M27.24 26.591c-7.93 9.717-7.673 25.168.578 34.616 3.62 4.144 8.468 7.126 11.827 11.485 3.16 4.102 4.83 9.327 4.632 14.501" transform="translate(-814 -339) translate(814.985 339.75)"/>
                <path stroke="#FFF" stroke-width=".75" d="M26.643 26.222c4.775-4.114 11.184-6.307 17.473-5.881 6.289.426 12.376 3.49 16.387 8.352 6.478 7.846 6.977 19.222 4.338 29.049-.74 2.753-1.696 5.45-2.297 8.237-1.213 5.63-.923 11.579.832 17.065M50.832 85.221c-2.204-5.274-4.95-10.3-7.693-15.315l-5.536-10.122" transform="translate(-814 -339) translate(814.985 339.75)"/>
                <path stroke="#FFF" stroke-width=".75" d="M37.535 59.327c-1.536-2.44-.902-5.946 1.265-7.848 2.168-1.902 5.57-2.131 8.082-.716 2.512 1.414 4.061 4.296 4.075 7.18.005 1.08-.39 2.392-1.448 2.615-1.169.248-2.075-1.025-2.434-2.164-.689-2.185-.674-4.586.045-6.761.713-2.157 2.532-4.288 4.796-4.103 1.184.097 2.233.82 3.065 1.672 2.291 2.34 3.3 5.68 3.556 8.946.256 3.266-.16 6.54-.314 9.813-.233 5.009.154 10.047 1.15 14.96M40.638 88.916c5.617-1.56 11.233-3.122 16.85-4.684l10.675-2.967M39.648 88.94c.677 1.742 1.354 3.484 1.984 5.24.639 1.78 1.227 3.574 1.818 5.368.542 1.655 1.086 3.31 1.63 4.965M68.1 81.211c2.45 5.232 4.449 10.637 5.976 16.158M45.178 104.582c2.865-1.131 6.03-1.224 9.07-1.771 6.824-1.227 13.118-4.773 20.024-5.397M70.603 86.333c.458-1.228 2.507-1.356 3.113-.194.607 1.162-.67 2.77-1.938 2.443" transform="translate(-814 -339) translate(814.985 339.75)"/>
                <path fill="#FFF" d="M1.5 22.099c3.873.319 7.755.519 11.641.597 1.931.04 1.931-2.96 0-3-3.886-.078-7.768-.278-11.641-.597-.809-.067-1.5.737-1.5 1.5 0 .867.689 1.433 1.5 1.5M4.636 8.676l9.977 7.95c.632.504 1.503.618 2.12 0 .524-.524.637-1.614 0-2.122l-9.976-7.95c-.633-.504-1.503-.618-2.121 0-.523.524-.637 1.614 0 2.122M17.314 1.893c.659 3.648 1.25 7.309 1.776 10.979.116.803 1.136 1.243 1.846 1.048.861-.237 1.163-1.04 1.047-1.845-.524-3.671-1.117-7.331-1.777-10.98-.143-.797-1.114-1.248-1.845-1.047-.84.23-1.192 1.045-1.047 1.845" transform="translate(-814 -339) translate(814.985 339.75)"/>
            </g>
        </g>
    </g>
</svg>
