<svg xmlns="http://www.w3.org/2000/svg" width="148" height="147" viewBox="0 0 148 147">
    <g fill="none" fill-rule="evenodd">
        <g stroke="#FFF">
            <g>
                <path d="M0.5 104.226L107.487 104.226 107.487 0.5 0.5 0.5z" transform="translate(-646 -764) rotate(-33 1712.058 -679.19)"/>
                <path d="M56.602 69.297l-7.261-4.74c-2.434-1.589-5.005-3.226-7.903-3.449-.297-.023-.603-.029-.885.065-.64.214-1.011.895-1.142 1.557-.451 2.27 1.167 4.401 2.812 6.028 2.54 2.513 5.405 4.696 8.502 6.48" transform="translate(-646 -764) rotate(-33 1712.058 -679.19)"/>
                <path d="M40.419 66.624l-3.407.235c-1.401.097-3.143.487-3.524 2.013-.201.808.089 1.648.433 2.379 1.051 2.227 2.665 4.102 4.61 5.355" transform="translate(-646 -764) rotate(-33 1712.058 -679.19)"/>
                <path d="M35.182 73.274c-2.585-.507-5.167 1.632-5.55 4.073-.383 2.44.997 4.895 2.946 6.567 1.95 1.672 4.414 2.703 6.83 3.706l8.033 3.334M38.404 76.369c2.683 2.479 5.641 4.657 8.804 6.483" transform="translate(-646 -764) rotate(-33 1712.058 -679.19)"/>
                <path d="M45.313 90.207c3.847 1.66 7.993 2.624 12.18 2.83.604.03 1.232.041 1.794-.188.727-.294 1.24-.944 1.703-1.578 3.736-5.127 6.38-11.046 7.703-17.252.291-1.368.514-2.827.025-4.137-.352-.94-1.038-1.712-1.722-2.447-6.354-6.812-13.83-12.46-21.265-18.074-2.794-2.107-5.66-4.255-9.004-5.288-1.752-.542-4.191-.428-4.771 1.313-.43 1.29.497 2.605 1.378 3.64 2.938 3.443 10.874 11.158 14.106 14.325" transform="translate(-646 -764) rotate(-33 1712.058 -679.19)"/>
                <path d="M57.378 58.455c.496-4.612 4.592-11.195 7.872-14.476.459-.46.938-.932 1.546-1.159 1.054-.395 2.318.086 2.978.997.66.911.752 2.157.397 3.224-.313.94-.931 1.74-1.448 2.585-1.768 2.888-2.367 6.322-2.87 9.672-.265 1.763-1.197 6.48.374 7.325M1.269 16.98L106.626 16.98M95.929 4.638l5.557 7.826M102.14 4.638c-2.877 1.992-5.356 4.557-7.251 7.5" transform="translate(-646 -764) rotate(-33 1712.058 -679.19)"/>
            </g>
        </g>
    </g>
</svg>
