<svg xmlns="http://www.w3.org/2000/svg" xmlns:xlink="http://www.w3.org/1999/xlink" width="25" height="25" viewBox="0 0 25 25">
    <defs>
        <radialGradient id="6u5m8kvpob" cx="100%" cy="0%" r="141.421%" fx="100%" fy="0%">
            <stop offset="0%" stop-color="#395DFA"/>
            <stop offset="8.935%" stop-color="#544CED"/>
            <stop offset="24.95%" stop-color="#903ACD"/>
            <stop offset="36.695%" stop-color="#D53592"/>
            <stop offset="44.419%" stop-color="#F4306D"/>
            <stop offset="54.416%" stop-color="#F8443E"/>
            <stop offset="64.857%" stop-color="#F86737"/>
            <stop offset="72.835%" stop-color="#F88330"/>
            <stop offset="86.085%" stop-color="#FBBB45"/>
            <stop offset="100%" stop-color="#FBE18A"/>
        </radialGradient>
        <path id="s2ejkuu7xa" d="M12.5 2.253c3.338 0 3.733.013 5.052.073 3.388.154 4.97 1.762 5.124 5.124.06 1.318.072 1.714.072 5.051 0 3.339-.013 3.733-.072 5.051-.155 3.36-1.733 4.97-5.124 5.124-1.319.06-1.712.073-5.052.073-3.338 0-3.733-.013-5.051-.073-3.396-.155-4.97-1.77-5.124-5.125-.06-1.318-.073-1.712-.073-5.051 0-3.338.014-3.732.073-5.051.155-3.361 1.733-4.97 5.124-5.124 1.319-.06 1.713-.072 5.051-.072zM12.5 0C9.105 0 8.68.015 7.347.075 2.807.283.284 2.802.076 7.345.015 8.68 0 9.106 0 12.5c0 3.395.015 3.82.075 5.154.208 4.54 2.727 7.063 7.27 7.271 1.335.06 1.76.075 5.155.075 3.395 0 3.82-.015 5.154-.075 4.536-.208 7.065-2.727 7.27-7.27.061-1.334.076-1.76.076-5.155 0-3.395-.015-3.82-.075-5.153-.204-4.536-2.726-7.063-7.27-7.271C16.321.015 15.895 0 12.5 0zm0 6.081c-3.545 0-6.419 2.874-6.419 6.419 0 3.545 2.874 6.42 6.419 6.42 3.545 0 6.419-2.874 6.419-6.42 0-3.545-2.874-6.419-6.419-6.419zm0 10.586c-2.301 0-4.167-1.865-4.167-4.167 0-2.301 1.866-4.167 4.167-4.167 2.301 0 4.167 1.866 4.167 4.167 0 2.302-1.866 4.167-4.167 4.167zm6.673-12.339c-.83 0-1.501.672-1.501 1.5s.672 1.5 1.5 1.5c.829 0 1.5-.672 1.5-1.5s-.671-1.5-1.5-1.5z"/>
    </defs>
    <g fill="none" fill-rule="evenodd">
        <g fill-rule="nonzero">
            <g>
                <g transform="translate(-312 -53) translate(123 51) translate(189 2)">
                    <use fill="#0D0D0E" xlink:href="#s2ejkuu7xa"/>
                    <use fill="url(#6u5m8kvpob)" xlink:href="#s2ejkuu7xa"/>
                </g>
            </g>
        </g>
    </g>
</svg>
