<svg xmlns="http://www.w3.org/2000/svg" width="117" height="23" viewBox="0 0 117 23">
    <g fill="none" fill-rule="evenodd">
        <g fill="#FFF" fill-rule="nonzero">
            <g>
                <path d="M.387 20.12c-.097 0-.174-.038-.232-.096-.058-.058-.097-.136-.097-.213v-1.798c0-.077.039-.174.097-.231.058-.058.135-.097.232-.097.985-.02 1.468-.367 1.778-.947.328-.58.425-1.47.425-2.397V3.653c0-.097.039-.174.097-.232.058-.058.135-.097.231-.097h2.01c.097 0 .175.039.233.097.057.058.096.135.096.232v11.886c0 .464-.058 1.585-.696 2.61C3.924 19.192 2.648 20.1.406 20.1h-.02M10.978 13.626h4.194l-2.126-7.055-2.068 7.055zm6.32 6.166c-.135 0-.27-.097-.309-.232l-1.063-3.537h-5.644L9.181 19.56c-.039.135-.174.232-.31.232H6.823c-.097 0-.194-.058-.27-.136-.059-.077-.078-.193-.04-.29l5.006-15.81c.039-.135.174-.232.31-.232h2.57c.135 0 .251.097.31.213l5.16 15.83c.039.096.02.193-.039.29-.058.077-.154.135-.27.135h-2.262zM26.962 9.992c1.43-.058 1.99-.773 2.03-2.203-.04-1.198-.58-2.049-2.107-2.068h-2.532v4.252h2.61v.02zm-.077 7.403c1.971 0 2.57-1.334 2.59-2.377-.02-1.199-.348-1.798-.89-2.165-.54-.367-1.39-.483-2.396-.483h-1.836v5.025h2.532zm-4.87 2.397c-.097 0-.175-.04-.233-.097-.058-.058-.096-.135-.096-.213V3.652c0-.076.019-.173.096-.231.058-.058.136-.097.232-.097h5.141c2.262-.019 3.19.831 3.808 1.76.6.946.676 1.932.676 2.28.04 1.7-.54 3.054-1.99 3.73 1.7.541 2.551 1.99 2.512 3.904.02 2.107-.792 3.363-1.855 4.02-1.063.658-2.3.754-3.228.754h-5.064v.02zM38.443 5.74c-.541.387-1.063 1.102-1.082 2.687v5.334c0 1.701.25 2.726.676 3.267.406.54 1.005.734 1.913.754.909 0 1.508-.194 1.914-.754.425-.541.676-1.566.676-3.267V8.427c0-1.585-.522-2.3-1.082-2.687-.56-.386-1.218-.406-1.527-.406h-.02c-.27 0-.908.02-1.468.406m1.527 14.38c-1.72 0-3.093-.464-3.982-1.527-.908-1.063-1.314-2.686-1.314-4.909v-5.2c0-1.623.425-3.014 1.314-3.98.89-.967 2.242-1.508 3.982-1.508 1.74 0 3.092.541 3.981 1.507.89.986 1.315 2.358 1.315 3.982v5.199c0 2.223-.406 3.827-1.315 4.91-.889 1.062-2.242 1.526-3.962 1.526h-.02M59.394 3.324c.097 0 .174.039.232.097.058.058.097.135.097.213v15.81c0 .096-.039.174-.097.232-.058.058-.135.096-.232.096H56.63c-.116 0-.232-.077-.29-.193L50.658 7.113v12.33c0 .097-.039.175-.097.233-.058.058-.135.096-.232.096h-1.797c-.077 0-.174-.038-.232-.096-.058-.058-.097-.136-.097-.232V3.634c0-.078.039-.174.097-.213.058-.058.135-.097.232-.097h2.841c.116 0 .251.078.29.194l5.586 12.292V3.653c0-.077.038-.174.096-.213.058-.058.136-.096.232-.096h1.817v-.02zM70.643 8.195c-.097 0-.174-.039-.232-.097-.058-.058-.097-.135-.097-.212 0-.89-.193-1.527-.56-1.914-.367-.386-.947-.638-1.933-.638-.31 0-.966.04-1.527.426-.56.386-1.063 1.101-1.082 2.686V13.8c0 1.7.251 2.725.676 3.266.406.542 1.005.735 1.914.735 1.237 0 2.087-.31 2.493-.56v-4.233h-2.59c-.077 0-.174-.02-.232-.097-.058-.058-.097-.135-.097-.232V10.92c0-.077.04-.174.097-.232.058-.058.135-.096.232-.096h4.967c.078 0 .155.038.232.096.058.058.097.136.097.232v7.693c0 .116-.058.232-.174.27-1.334.735-2.919 1.237-4.987 1.237h-.038c-1.701 0-3.054-.464-3.963-1.527-.889-1.063-1.294-2.686-1.294-4.909v-5.2c0-1.623.425-3.014 1.314-3.98.889-.967 2.242-1.508 3.981-1.508 1.663 0 2.977.29 3.885 1.024.909.735 1.353 1.914 1.334 3.48v.386c0 .174-.155.309-.329.309h-2.087zM101.664.174c.328 0 .618.097.87.29l12.93 9.934c.348.29.56.696.56 1.14 0 .445-.212.87-.56 1.141l-12.93 9.934c-.252.194-.542.29-.87.29H78.818c-.386 0-.734-.154-1.005-.406-.25-.27-.405-.618-.405-1.005V1.624c0-.387.135-.735.405-1.006.271-.27.619-.425 1.005-.425v-.02zM84.308 7.963c-.677 0-1.257.135-1.682.56-.425.426-.638 1.064-.638 2.03v1.855c0 1.295.329 2.03.812 2.416.483.387 1.063.387 1.469.387h.077c.255-.003.704-.03 1.121-.29.483-.29.87-.89.87-1.933v-.077c0-.097-.077-.193-.193-.193h-.87c-.097 0-.193.096-.193.193-.039 1.179-.619 1.16-.831 1.179-.31 0-.522-.058-.677-.232-.155-.174-.29-.58-.29-1.372v-1.76c0-.54.039-.85.078-1.023.038-.194.057-.174.096-.271 0-.02 0-.039.039-.077.077-.116.309-.31.754-.31.135 0 .502.097.599.213.077.116.135.387.135.715v.116c0 .039.02.097.058.135.039.039.077.058.135.058v.058h.87c.097 0 .193-.096.193-.193v-.27c0-.6-.135-1.083-.464-1.411-.328-.348-.83-.503-1.468-.503zm5.083-.039c-.735 0-1.315.232-1.701.658-.387.425-.56 1.024-.56 1.7v2.165l.004.247c.029.805.205 1.419.556 1.84.351.422.878.62 1.523.653l.197.005.197-.005c.641-.033 1.153-.23 1.504-.653.367-.483.541-1.16.541-2.087v-2.165l-.006-.227c-.035-.595-.21-1.096-.554-1.473-.387-.426-.967-.658-1.701-.658zm4.89.136h-1.373l-.052.006c-.031.009-.057.026-.083.052-.039.038-.058.077-.058.135v6.59l.007.053c.008.031.025.057.051.083.026.026.06.052.092.066l.043.011h.793l.052-.006c.032-.009.057-.026.083-.052.039-.038.058-.077.058-.135v-4.58l1.43 4.638.019.044c.032.054.097.091.175.091h.792l.055-.006c.07-.018.123-.067.138-.129l1.47-4.677v4.6l.006.052c.008.031.025.057.051.083.039.039.097.058.136.058h.85l.052-.006c.032-.01.057-.026.083-.052.039-.039.058-.077.058-.135V8.253l-.006-.052c-.009-.032-.026-.058-.052-.083-.038-.039-.096-.058-.135-.058h-1.372l-.056.006c-.07.018-.122.067-.138.129l-1.488 4.929-1.488-4.929-.018-.044c-.033-.054-.098-.091-.175-.091zm-4.91.966c.252.02.986-.039 1.005 1.218v2.222c-.038 1.411-.309 1.566-1.005 1.605-.695-.04-.947-.174-1.005-1.605v-2.222c.02-1.237.773-1.18 1.005-1.218z" transform="translate(-532 -932) translate(532 932)"/>
            </g>
        </g>
    </g>
</svg>
