<svg xmlns="http://www.w3.org/2000/svg" width="109" height="22" viewBox="0 0 109 22">
    <g fill="none" fill-rule="evenodd">
        <g>
            <g>
                <g>
                    <path fill="#FFF" d="M70.883 21.862L78.543 21.875 78.546 20.065 70.886 20.052z" transform="translate(-237 -54) translate(71 42) translate(166 12)"/>
                    <g>
                        <path fill="#FFF" d="M54.293 18.195L58.92 18.202 58.946 3.899 54.32 3.891z" transform="translate(-237 -54) translate(71 42) translate(166 12)"/>
                        <path fill="#FFF" d="M48.35 14.221c-.296.332-.667.591-1.075.78-.427.178-.881.277-1.373.277-.417 0-.816-.072-1.186-.215-.371-.143-.696-.349-.974-.608-.325-.314-.584-.717-.76-1.192-.167-.484-.251-1.03-.251-1.648 0-.752.13-1.406.39-1.952s.62-.967 1.094-1.253c.473-.296 1.03-.44 1.678-.448.677.009 1.27.17 1.79.474.51.305.918.725 1.205 1.263.287.537.436 1.164.436 1.863 0 .537-.084 1.03-.25 1.478-.177.456-.408.841-.724 1.181zM29.063 9.824c.195-.707.529-1.227 1.011-1.585.482-.34 1.122-.51 1.91-.51.76 0 1.382.179 1.855.537.473.358.788.878.936 1.576l-5.712-.018zM53.775.305L51.78.295h-2.374V6.27c-.482-.367-.946-.672-1.41-.904-.008-.01-.017-.01-.027-.018-.464-.233-.955-.403-1.465-.51-.51-.108-1.057-.162-1.65-.162-.919 0-1.753.143-2.514.42-.76.279-1.428.7-2.002 1.246-.622.618-1.094 1.36-1.428 2.248-.112.295-.205.618-.279.949-.259-1.057-.686-1.961-1.288-2.705-.603-.743-1.363-1.316-2.263-1.71-.9-.394-1.938-.591-3.097-.6-1.057 0-2.03.17-2.893.501-.862.332-1.614.806-2.235 1.424-.621.627-1.103 1.37-1.437 2.24-.333.86-.51 1.826-.51 2.9 0 1.066.167 2.05.51 2.938.343.887.844 1.657 1.503 2.31.63.618 1.372 1.075 2.234 1.38.853.304 1.827.456 2.911.456 1.104 0 2.096-.152 2.977-.456.88-.305 1.641-.762 2.272-1.362.204-.197.39-.394.547-.59.157-.198.306-.43.454-.682.149-.26.306-.573.473-.94l-3.866-1.065c-.056.187-.121.34-.177.465-.055.126-.13.242-.203.34-.084.099-.177.197-.288.296-.288.26-.622.457-1.002.591-.38.134-.797.197-1.242.197-.88 0-1.576-.233-2.086-.68-.51-.457-.816-1.11-.928-1.988l9.486.017c.112.94.353 1.773.714 2.508.51 1.039 1.252 1.836 2.217 2.39.963.565 2.123.843 3.476.852.464 0 .89-.018 1.28-.072.39-.053.76-.143 1.104-.26.352-.125.705-.277 1.038-.474.13-.072.26-.153.39-.242.222-.143.454-.314.686-.493v1.164l4.154.01V7.773l.01-5.784h.064l3.116.008h2.215V.314L53.775.305z" transform="translate(-237 -54) translate(71 42) translate(166 12)"/>
                        <path fill="#FFF" d="M24.95 9.582v2.042h-.009l-.009 3.457v3.063l-4.247-.01V10.46c0-.537-.056-.967-.176-1.298-.12-.332-.306-.573-.556-.717-.26-.152-.603-.224-1.02-.224-.38 0-.742.09-1.085.269-.343.188-.658.448-.937.788 0 .009 0 .009-.009.009-.482.6-.686 1.37-.686 2.123v.035l-.01 3.457v3.224l-4.274-.009V15.53c.01-.206.01-.42.01-.654l.008-4.433c0-.296-.009-.546-.037-.752-.018-.206-.056-.385-.111-.528-.055-.143-.13-.278-.223-.394-.13-.17-.296-.305-.51-.403-.213-.09-.444-.135-.713-.135-.603 0-1.15.197-1.642.591-.12.108-.241.216-.352.332-.52.564-.779 1.307-.844 2.06-.009.107-.009.223-.009.34l-.01 3.313c0 .448 0 .85.01 1.209v2.042l-4.228-.01v-3.25L3.29 8.24c0-.51 0-.958-.01-1.334V6.85l-.009-.188H.341V4.99h2.773l4.404.009v1.396c.557-.59 1.178-1.03 1.864-1.307.695-.287 1.483-.43 2.355-.43.575 0 1.104.072 1.586.197.473.135.89.323 1.26.582.13.09.242.188.344.287.102.098.204.215.287.34.093.126.177.268.278.448.455-.43.919-.788 1.391-1.066.473-.268.984-.474 1.512-.6.538-.134 1.122-.197 1.761-.188 1.586 0 2.792.412 3.589 1.245.807.833 1.205 2.06 1.205 3.68M68.253 13.084c0 .322-.074.627-.204.905-.139.277-.343.528-.593.743-.213.17-.445.313-.724.43-.268.125-.565.214-.871.286-.306.063-.612.099-.918.099-.584-.009-1.03-.117-1.344-.323-.315-.215-.473-.51-.483-.904.01-.313.12-.6.353-.851.222-.251.538-.438.946-.573.296-.09.612-.161.955-.215.352-.063.75-.107 1.214-.134.464-.036 1.02-.054 1.67-.072v.609zm.78 1.442c0-1.89 1.483-3.448 3.384-3.645V9.368c0-.645-.065-1.21-.214-1.693-.138-.493-.36-.913-.667-1.272-.297-.358-.686-.662-1.16-.913-.287-.153-.648-.278-1.084-.394-.427-.117-.9-.206-1.42-.269-.518-.062-1.047-.09-1.603-.098-1.075 0-2.03.098-2.856.304-.834.206-1.54.51-2.142.914-.306.215-.575.439-.807.68-.222.242-.417.52-.593.824-.167.313-.325.681-.473 1.102l4.238.672c.166-.53.454-.906.853-1.147.408-.242.955-.358 1.669-.358.723 0 1.26.125 1.595.367.342.25.51.627.51 1.146v.493c-.4.009-.751.018-1.048.027-.297.008-.557.018-.798.027-.231.008-.454.026-.658.035l-.63.054c-1.002.08-1.873.242-2.643.466-.751.233-1.42.537-1.984.922-.53.359-.937.797-1.215 1.334-.269.52-.408 1.13-.408 1.81 0 .59.102 1.137.306 1.638.204.502.51.923.908 1.281.445.403.984.698 1.623.896.63.196 1.372.295 2.216.295.603 0 1.16-.036 1.651-.125.5-.081.965-.224 1.4-.412.426-.188.853-.44 1.26-.744v.986l4.313.009v-.037c-1.975-.134-3.533-1.719-3.524-3.662zM103.183 7.227h1.604V4.191h-1.604v3.036zm4.562 9.323c-.232.134-.436.242-.621.322-.176.08-.353.135-.529.161-.157.037-.333.045-.519.045-.223 0-.418-.027-.593-.09-.177-.062-.325-.143-.436-.26-.093-.088-.167-.214-.214-.384-.037-.17-.065-.403-.065-.699l.01-2.865.01-4.218h-1.605l-.019 7.29c0 .474.047.868.14 1.181.092.323.24.573.454.78.213.205.491.358.844.474.343.108.751.161 1.224.161.278 0 .556-.008.806-.045.26-.026.51-.08.77-.143.25-.071.52-.16.806-.277l-.463-1.433zM91.546 11.006c.046-.188.093-.357.158-.51.064-.161.139-.323.24-.483.325-.583.742-1.012 1.253-1.317.519-.305 1.103-.457 1.743-.457.51 0 .973.072 1.38.233.419.152.79.385 1.114.69.222.206.408.439.557.68.157.242.278.51.361.815.092.296.148.645.195 1.02l-6.537-.017h-.594c.037-.25.083-.475.13-.654m5.776 5.597c-.583.404-1.307.6-2.16.6-.64 0-1.205-.116-1.715-.358-.5-.242-.918-.582-1.261-1.039-.186-.241-.343-.492-.455-.761-.11-.268-.204-.573-.268-.913-.056-.332-.093-.725-.112-1.182h.659l8.224.018c-.018-.197-.028-.395-.056-.609-.018-.216-.036-.403-.055-.583-.018-.179-.028-.304-.037-.384-.14-.914-.445-1.702-.9-2.364-.453-.664-1.047-1.174-1.761-1.532-.705-.358-1.52-.538-2.439-.546-.788 0-1.511.134-2.151.412-.64.268-1.196.654-1.65 1.164-.464.502-.816 1.11-1.067 1.817-.14.413-.241.852-.306 1.317h-1.678v-.779c0-.501-.047-.94-.14-1.325-.101-.395-.24-.735-.445-1.021-.343-.502-.797-.887-1.372-1.147-.565-.26-1.233-.393-2.003-.393-.946-.01-1.77.196-2.475.6-.668.394-1.243.976-1.725 1.754V7.191H78.38V8.67c.01.251.01.52.01.824l-.01 6.394v2.31h1.576v-.304l.01-5.776v-.17c.055-.27.13-.51.213-.726.074-.223.185-.438.306-.645.12-.205.278-.42.454-.644.445-.555.91-.958 1.41-1.227.491-.26 1.029-.385 1.613-.385.835.009 1.474.242 1.91.725.445.475.658 1.174.658 2.095v7.067l1.586.008.01-5.256h.009v-.018l1.613.009v.01c.018.796.139 1.512.37 2.157.252.707.613 1.316 1.077 1.818l.11.108c.446.456.974.805 1.596 1.056.658.269 1.409.412 2.235.412.77 0 1.483-.116 2.123-.358.63-.242 1.205-.592 1.697-1.066.158-.152.306-.304.436-.457.12-.152.24-.322.361-.519.111-.197.241-.43.371-.717l-1.474-.573c-.297.788-.742 1.38-1.327 1.782" transform="translate(-237 -54) translate(71 42) translate(166 12)"/>
                        <path fill="#FF8929" d="M74.102 17.72c1.596.002 2.9-1.256 2.904-2.801.003-1.546-1.297-2.81-2.894-2.813-1.597-.002-2.9 1.257-2.904 2.802-.003 1.546 1.296 2.808 2.894 2.811" transform="translate(-237 -54) translate(71 42) translate(166 12)"/>
                        <path fill="#FFF" d="M107.958 7.227l-.01 1.308v.027h-7.51V7.227h4.35v.01h1.01c.324 0 .593 0 .825-.01h1.335z" transform="translate(-237 -54) translate(71 42) translate(166 12)"/>
                    </g>
                </g>
            </g>
        </g>
    </g>
</svg>
