<svg xmlns="http://www.w3.org/2000/svg" xmlns:xlink="http://www.w3.org/1999/xlink" width="38" height="48" viewBox="0 0 38 48">
    <defs>
        <path id="8gqv3sstja" d="M0.506 0.644L31.17 0.644 31.17 34.964 0.506 34.964z"/>
        <path id="2efok4pdjc" d="M0 0.159L7.211 0.159 7.211 7 0 7z"/>
    </defs>
    <g fill="none" fill-rule="evenodd">
        <g>
            <g>
                <g transform="translate(-1167 -323) translate(1167 323) translate(6 .356)">
                    <mask id="8iemm5bktb" fill="#fff">
                        <use xlink:href="#8gqv3sstja"/>
                    </mask>
                    <path fill="#FFF" d="M19.37 6.2c.83-.685 2.003-.732 3.004-.49 1.204.293 2.324.955 3.01 1.988 1.766 2.653.473 6.43-1.565 8.53-2.581 2.66-6.411 3.728-10.005 4.05-3.847.346-8.552.409-11.275 3.627-2.647 3.129-3.04 8.327.822 10.679 2.755 1.679 5.27-2.644 2.524-4.317-.666-.406-.202-.144-.168-.107-.043-.047-.24-.361-.101-.121-.102-.177-.14-.368-.134-.27-.031-.662-.011-1.071.19-1.568.62-1.523 2.043-2.073 3.713-2.435 2.123-.461 4.338-.425 6.486-.727 2.08-.292 4.079-.813 6.014-1.636 4.03-1.715 7.302-4.786 8.692-9.006 1.284-3.9.528-8.618-2.714-11.348C24.39.125 19.4-.285 15.836 2.665c-1.041.862-.892 2.644 0 3.536 1.029 1.03 2.49.863 3.535 0" mask="url(#8iemm5bktb)"/>
                </g>
                <g transform="translate(-1167 -323) translate(1167 323) translate(0 40.356)">
                    <mask id="ojrqxo1bxd" fill="#fff">
                        <use xlink:href="#2efok4pdjc"/>
                    </mask>
                    <path fill="#FFF" d="M.732 4.429l2.211 1.838c.227.244.494.416.805.516.297.157.62.229.963.216.343.013.665-.06.962-.216.311-.1.58-.272.805-.516l.391-.506c.226-.39.341-.811.342-1.262l-.089-.665c-.119-.423-.334-.791-.644-1.103L4.268.893C4.041.65 3.772.477 3.462.376 3.166.22 2.844.148 2.5.16c-.344-.013-.665.059-.963.215-.31.1-.578.274-.805.517l-.39.506c-.227.39-.34.81-.342 1.262l.09.665c.118.423.332.79.642 1.103" mask="url(#ojrqxo1bxd)"/>
                </g>
            </g>
        </g>
    </g>
</svg>
