<svg xmlns="http://www.w3.org/2000/svg" width="58" height="29" viewBox="0 0 58 29">
    <g fill="none" fill-rule="evenodd">
        <g fill="#FFF" fill-rule="nonzero">
            <g>
                <path d="M31.554 29c-3.694 0-6.978-1.496-9.024-3.876-1.923 1.415-4.39 2.352-6.992 2.227-2.41-.119-6.721-1.344-8.518-8.215-.398-1.52-.647-2.957-.748-4.31-2.36 1.381-3.877 3.096-4.328 3.959-.207.396-.793.587-1.31.43-.517-.16-.769-.608-.561-1.002.623-1.192 2.767-3.588 6.154-5.242.117-3.923 1.637-7.04 4.549-9.306C15.32.13 22.164-.398 26.645.225c3.595.5 6.727 2.961 7.775 6.004.787.388 1.521.827 2.198 1.313 5.158-.72 8.92-.19 11.209 1.58.19.148.366.3.529.459 2.993-.305 5.341.184 7 1.459 4.915 3.778 1.499 13.114 1.352 13.51-.154.41-.712.645-1.247.529-.535-.118-.845-.544-.692-.953.032-.089 3.242-8.862-.843-12-1.043-.801-2.542-1.16-4.466-1.079 1.414 2.678.389 5.8.259 6.17-.79 2.939-4.873 4.768-8.47 4.768l-.166-.002C39.653 25.797 36.353 29 31.554 29zm-7.616-5.094c1.541 2.026 4.162 3.552 7.616 3.552 3.592 0 6.265-2.563 7.518-5.727-.898-.23-1.625-.615-2.127-1.129-.492-.504-1.006-1.39-.652-2.742.437-1.67 1.538-3.067 2.842-4.196-.618-1.608-1.654-3.149-3.198-4.447-.4.068-.81.142-1.228.225-.37 2.404-2.167 5.72-8.388 8.481.175 1.03.022 2.133-.478 3.264-.415.937-1.07 1.871-1.905 2.72zm-15.7-10.053c.037 1.53.29 3.19.758 4.98 1.136 4.345 3.506 6.823 6.67 6.98 1.997.104 4.177-.739 5.862-2.096-.521-.897-.888-1.881-1.067-2.928-.083-.486-.126-.959-.13-1.418-2.184.019-4.178-.548-5.83-1.712-1.727-1.217-2.801-2.919-3.116-4.701-.321.053-.641.118-.96.193-.774.184-1.504.424-2.186.702zm14.125 5.327c-.015.479.018.95.098 1.408.096.565.268 1.13.51 1.682.39-.495.717-1.024.961-1.577.236-.533.456-1.24.447-2.014-.678.22-1.352.387-2.016.501zm19.015-5.07c.4 1.35.567 2.777.48 4.237-.041.694-.144 1.393-.306 2.085 2.492-.103 5.61-1.302 6.196-3.544.005-.02.01-.038.018-.057.013-.036 1.135-3.222-.382-5.553-.278.048-.564.103-.855.164-.395.133-2.957 1.037-5.15 2.668zm-1.691 1.53c-.658.745-1.173 1.587-1.417 2.522-.167.639-.07 1.15.29 1.518.258.263.626.433.99.544.156-.643.256-1.296.295-1.947.05-.859.002-1.748-.158-2.637zm-26.289-2.872c.26 1.432 1.114 2.802 2.47 3.758 1.3.916 2.865 1.35 4.596 1.303.2-1.07.616-2.054 1.2-2.955l-.216-.114c-2.72-1.386-5.417-2.056-8.05-1.992zm9.83 3.25c-.269.502-.471 1.01-.612 1.518.46-.11.926-.249 1.4-.419-.18-.37-.436-.74-.788-1.098zm1.004-1.466c.668.548 1.186 1.161 1.547 1.822 3.773-1.77 6.122-4.019 6.8-6.447-4.106 1.088-6.772 2.758-8.347 4.625zm-10.486-3.334c2.915 0 5.868.755 8.821 2.26l.133.068c2.393-2.61 6.27-4.362 10.078-5.287-.012-.315-.05-.632-.117-.95-.008-.036-.015-.071-.024-.106-1.867-.813-4.149-1.37-6.901-1.561-8.023-.557-10.813 2.104-11.762 3.741-.337.58-.54 1.203-.62 1.839.13-.003.26-.004.392-.004zm24.487-2.316c.093.092.184.185.274.279.935.98 1.686 2.083 2.24 3.269 2.403-1.586 4.872-2.39 5.055-2.448.039-.012.077-.022.117-.03.035-.009.07-.016.106-.024-1.656-1.06-4.266-1.408-7.792-1.046zm-14.88-7.348c-3.412 0-7.93.693-11.14 3.19C9.89 6.552 8.583 9.02 8.295 12.12c.492-.166 1.003-.314 1.532-.44.491-.116.985-.21 1.48-.283.068-.905.338-1.801.823-2.637 1.989-3.426 7.015-5.124 13.788-4.651 2.111.146 4.058.5 5.816 1.052-1.181-1.766-3.233-3.11-5.451-3.42-.799-.11-1.804-.186-2.93-.186z" transform="translate(-105 -229) translate(105 229)"/>
            </g>
        </g>
    </g>
</svg>
