<svg xmlns="http://www.w3.org/2000/svg" xmlns:xlink="http://www.w3.org/1999/xlink" width="309" height="319" viewBox="0 0 309 319">
    <defs>
        <path id="y2fyfgwtya" d="M0 0H278V278H0z"/>
        <path id="ijflyo8skc" d="M0.33 0.027L11.457 0.027 11.457 12.758 0.33 12.758z"/>
        <path id="p4o1bi3tee" d="M0.271 0.975L8.234 0.975 8.234 7 0.271 7z"/>
        <mask id="q4v7mgpj1b" width="278" height="278" x="0" y="0" fill="#fff" maskContentUnits="userSpaceOnUse" maskUnits="objectBoundingBox">
            <use xlink:href="#y2fyfgwtya"/>
        </mask>
    </defs>
    <g fill="none" fill-rule="evenodd">
        <g>
            <g transform="translate(-969 -234) translate(969 234)">
                <use stroke="#FFF" stroke-dasharray="8" stroke-width="2" mask="url(#q4v7mgpj1b)" xlink:href="#y2fyfgwtya"/>
                <g>
                    <g>
                        <path fill="#FFF" d="M.377 1.077c.48 6.774.367 13.571-.333 20.327-.149 1.44 2.102 1.428 2.25 0 .7-6.756.812-13.553.333-20.327-.1-1.437-2.352-1.447-2.25 0" transform="translate(285 288) translate(0 .876)"/>
                        <path fill="#FFF" d="M.961 2.479c6.245 2.352 12.215 5.375 17.812 9.007 1.22.79 2.348-1.156 1.136-1.943C14.146 5.803 7.987 2.73 1.56.309.202-.202-.384 1.972.961 2.479M2.281 22.17c.083-.1.175-.187.268-.278.098-.08.098-.083 0-.005.051-.039.104-.076.157-.113.238-.166.48-.327.721-.489l1.401-.948 2.894-1.959c.487-.329.748-1.005.405-1.539-.313-.484-1.019-.757-1.54-.404l-2.989 2.022-1.494 1.012c-.49.332-1.03.65-1.414 1.11-.377.45-.475 1.154 0 1.591.415.382 1.188.482 1.591 0" transform="translate(285 288) translate(0 .876)"/>
                        <path fill="#FFF" d="M17.712 10.158c-.071.13.025-.021.06-.06-.144.16.146-.08.041-.023-.094.053-.185.113-.28.166l-.587.322c-.416.226-.831.451-1.24.691-.857.504-1.686 1.075-2.403 1.768-.425.41-.443 1.185 0 1.591.455.418 1.138.438 1.591 0 .169-.163.343-.32.525-.47.028-.022.209-.16.069-.057l.042-.031c.094-.07.189-.139.286-.207.396-.277.811-.529 1.231-.77.41-.234.827-.46 1.242-.686.52-.284 1.069-.556 1.366-1.098.282-.518.144-1.25-.404-1.54-.525-.278-1.237-.149-1.539.404M6.217 18.235c3.296 3.64 6.47 7.388 9.519 11.238.377.477 1.196.395 1.59 0 .47-.47.378-1.113 0-1.591-3.047-3.85-6.222-7.598-9.518-11.238-.975-1.076-2.562.52-1.591 1.59" transform="translate(285 288) translate(0 .876)"/>
                        <g transform="translate(285 288) translate(0 .876) translate(12 13)">
                            <mask id="iu4re84brd" fill="#fff">
                                <use xlink:href="#ijflyo8skc"/>
                            </mask>
                            <path fill="#FFF" d="M.67 1.94c3.229 3.126 6.144 6.558 8.686 10.265.342.5.987.726 1.539.403.496-.29.748-1.035.403-1.54C8.649 7.207 5.627 3.608 2.261.349 1.22-.658-.373.932.67 1.94" mask="url(#iu4re84brd)"/>
                        </g>
                        <g transform="translate(285 288) translate(0 .876) translate(15 23)">
                            <mask id="zo845awcof" fill="#fff">
                                <use xlink:href="#p4o1bi3tee"/>
                            </mask>
                            <path fill="#FFF" d="M1.963 6.86C3.98 5.873 5.71 4.426 7.492 3.079H6.357l.194.123c.498.316 1.263.12 1.539-.403.294-.556.128-1.203-.403-1.54l-.195-.124c-.306-.194-.834-.228-1.135 0C4.574 2.483 2.844 3.928.827 4.918c-.529.26-.717 1.054-.403 1.54.35.542.973.68 1.539.403" mask="url(#zo845awcof)"/>
                        </g>
                    </g>
                </g>
            </g>
        </g>
    </g>
</svg>
