<svg xmlns="http://www.w3.org/2000/svg" width="103" height="28" viewBox="0 0 103 28">
    <g fill="none" fill-rule="evenodd">
        <g stroke="#FFF">
            <g>
                <path d="M58.786 15.175L67.93 15.175M59.243 20.66L68.156 20.66" transform="translate(-729 -451) translate(729 451)"/>
                <g>
                    <path d="M8.45 12.867c-.053-1.218-1.585-1.911-2.758-1.58-1.175.33-2.026 1.315-2.808 2.25-.808.97-1.63 1.963-2.078 3.143-.446 1.18-.454 2.603.3 3.615.952 1.278 2.907 1.513 4.324.786 1.418-.728 2.325-2.213 2.723-3.756.4-1.542.358-3.16.314-4.753.046 1.139-.242 2.26-.466 3.378-.225 1.117-.39 2.284-.1 3.387.29 1.102 1.136 2.127 2.261 2.309 1.125.18 2.387-.778 2.25-1.91M12.718 3.316c.581-.73 1.856-.502 2.404.252.548.754.513 1.794.25 2.687-.513 1.74-1.748 3.157-2.949 4.513l5.357.52M50.13 3.316c.581-.73 1.856-.502 2.404.252.548.754.513 1.794.25 2.687-.513 1.74-1.748 3.157-2.949 4.513l5.357.52M21.442 14.69l12.809-.467M27.675 6.69c.076 1.645.152 3.292.23 4.936v10.088M39.913.066c.101 2.854.15 5.712.25 8.566v12.795M40.163 11.454c1.885-.652 4.147.008 5.386 1.57 1.238 1.563 1.365 3.916.3 5.602-1.065 1.686-3.244 2.584-5.187 2.137M74.924 3.7c1.345-.84 3.211-.742 4.461.234 1.25.976 1.797 2.763 1.31 4.271-.599 1.85-2.436 2.965-3.627 4.501-1.815 2.341-1.98 5.83-.398 8.332M77.8 24.999l-.529.284.526.274M87.277 2.05c.22 4.736.327 9.477.548 14.212v4.224M88.87 23.489l.06.886c-.004-.597-.7-1.076-1.258-.866-.558.21-.765 1.029-.373 1.48.391.45 1.23.358 1.516-.166l.408-.305M94.327 4.101c1.754-1 4.198-.79 5.73.492 1.53 1.283 2.02 3.533 1.15 5.274-.717 1.433-2.17 2.407-3.178 3.677-1.646 2.077-1.983 4.998-.847 7.355M97.966 24.179c-.26.032-.433.36-.31.593.123.232.492.276.664.079.291-.344.105-.962-.325-1.09" transform="translate(-729 -451) translate(729 451) translate(0 .952)"/>
                </g>
            </g>
        </g>
    </g>
</svg>
