<svg xmlns="http://www.w3.org/2000/svg" width="33" height="20" viewBox="0 0 33 20">
    <g fill="none" fill-rule="evenodd">
        <g fill="#06F" fill-rule="nonzero">
            <g>
                <g>
                    <path d="M30.25 2.667h-9.625V0h9.625v2.667zM32.623 16c-.608 1.73-2.79 4-7.014 4-4.227 0-7.65-2.305-7.65-7.567 0-5.213 3.197-7.893 7.515-7.893 4.238 0 6.826 2.376 7.39 5.901.108.675.15 1.584.132 2.854H21.959c.178 4.281 4.789 4.416 6.308 2.705h4.356zm-10.568-5.333h6.827c-.145-2.063-1.562-2.959-3.406-2.959-2.016 0-3.131 1.024-3.421 2.959zM8.89 19.984H0V.028h9.56c7.53.108 7.673 7.259 3.74 9.208 4.76 1.68 4.919 10.748-4.41 10.748zM4.125 8h4.928c3.448 0 3.996-4-.43-4H4.126v4zm4.663 4H4.125v4.021h4.594c4.2 0 3.943-4.021.069-4.021z" transform="translate(-123 -56) translate(123 51) translate(0 5)"/>
                </g>
            </g>
        </g>
    </g>
</svg>
