<svg xmlns="http://www.w3.org/2000/svg" width="155" height="150" viewBox="0 0 155 150">
    <g fill="none" fill-rule="evenodd">
        <g stroke="#FFF">
            <g>
                <g>
                    <path d="M50.062 122.598h102.125V0H0v122.598h30.13s.98 19.541-5.882 24.442c0 0 21.893-4.444 25.814-24.442z" transform="translate(-769 -603) translate(770 604) translate(.5 .5)"/>
                    <path d="M137.233 54.503H16.678c-2.073 0-3.77-1.697-3.77-3.771V16.955c0-2.073 1.697-3.77 3.77-3.77h120.555c2.073 0 3.77 1.697 3.77 3.77v33.777c0 2.074-1.697 3.77-3.77 3.77zM66.62 105.859H16.68c-2.074 0-3.771-1.697-3.771-3.771V68.31c0-2.074 1.697-3.77 3.77-3.77h49.943c2.074 0 3.77 1.696 3.77 3.77v33.777c0 2.074-1.696 3.77-3.77 3.77zM135.714 105.859H85.772c-2.074 0-3.77-1.697-3.77-3.771V68.31c0-2.074 1.696-3.77 3.77-3.77h49.942c2.074 0 3.771 1.696 3.771 3.77v33.777c0 2.074-1.697 3.77-3.77 3.77z" transform="translate(-769 -603) translate(770 604) translate(.5 .5)"/>
                </g>
            </g>
        </g>
    </g>
</svg>
