<svg xmlns="http://www.w3.org/2000/svg" width="77" height="83" viewBox="0 0 77 83">
    <g fill="none" fill-rule="evenodd">
        <g>
            <g>
                <g>
                    <path fill="#FFF" d="M47.502 2.001C39.126 21.556 31.15 41.246 22.775 60.802L.337 46.728c1.653-1.869 2.588-2.437 4.242-4.306 4.312 3.127 9.49 6.461 13.802 9.588C27.39 35.714 35.05 17.342 41.825-.002c2.26.667 3.852 1.574 5.954 2.291" transform="translate(-1242 -796) translate(1242 797) translate(21 .612)"/>
                    <path stroke="#FFF" d="M47.502 2.001C39.126 21.556 31.15 41.246 22.775 60.802L.337 46.728c1.653-1.869 2.588-2.437 4.242-4.306 4.312 3.127 9.49 6.461 13.802 9.588C27.39 35.714 35.05 17.342 41.825-.002c2.26.667 3.852 1.574 5.954 2.291" transform="translate(-1242 -796) translate(1242 797) translate(21 .612)"/>
                </g>
                <path stroke="#FFF" d="M59.325 23.601L75.731 55.679 26.342 80.939 0.673 30.749 50.062 5.49 56.228 17.547" transform="translate(-1242 -796) translate(1242 797)"/>
            </g>
        </g>
    </g>
</svg>
