<svg xmlns="http://www.w3.org/2000/svg" width="29" height="44" viewBox="0 0 29 44">
    <g fill="none" fill-rule="evenodd">
        <g>
            <g>
                <g fill="#FFF">
                    <path d="M11.54 13.802l12.238 3.86c1.846.582 2.636-2.313.798-2.893l-12.239-3.86c-1.846-.582-2.636 2.313-.798 2.893" transform="translate(-1294 -622) translate(1294 622) translate(0 .956)"/>
                    <path d="M12.814 12.35l2.116-3.413c.414-.668.165-1.68-.538-2.052-.734-.389-1.61-.175-2.053.538l-2.116 3.412c-.414.667-.165 1.681.538 2.052.735.388 1.61.174 2.053-.538" transform="translate(-1294 -622) translate(1294 622) translate(0 .956)"/>
                    <path d="M14.008 9.034c3.872.962 7.598 2.38 11.118 4.26.715.38 1.633.178 2.053-.539.397-.68.179-1.67-.538-2.053-3.74-1.996-7.721-3.539-11.836-4.56-1.873-.466-2.673 2.426-.797 2.892" transform="translate(-1294 -622) translate(1294 622) translate(0 .956)"/>
                    <path d="M24.778 12.163l-1.896 3.296c-.195.339-.254.778-.151 1.156.096.348.365.725.69.897.714.377 1.634.188 2.052-.54.63-1.098 1.263-2.196 1.895-3.295.195-.34.256-.778.15-1.156-.094-.348-.364-.725-.688-.896-.715-.378-1.635-.19-2.052.538M19.075 8.688c1.14-1.296 2.268-2.604 3.418-3.89.22-.244.443-.484.68-.712.135-.132.275-.26.42-.384l.217-.18c-.117.092-.106.087.034-.016.116-.072.227-.15.346-.22.062-.036.551-.245.24-.135.163-.058.325-.103.494-.139-.354.076.087.022.17.013.111.007.085.001-.078-.018.087.016.174.037.26.063.16.056.152.052-.022-.01.141.09.141.082 0-.028.116.121.118.108.006-.039.07.125.081.134.033.028-.038-.074-.052-.154-.039-.239-.002.182 0 .192.002.027-.059.167-.062.183-.008.048l-.133.272c-.093.187-.187.373-.284.558-.17.324-.346.645-.527.962-.387.681-.802 1.346-1.243 1.993-.436.643-.879 1.237-1.257 1.71-.492.608-.642 1.531 0 2.12.544.501 1.595.653 2.121 0 .964-1.199 1.864-2.447 2.654-3.768.375-.627.727-1.268 1.057-1.92.408-.812.776-1.65.535-2.576C27.708.432 25.691-.21 24.063.132c-1.41.297-2.608 1.36-3.552 2.391-1.21 1.324-2.373 2.696-3.557 4.043-.518.59-.623 1.55 0 2.122.566.521 1.568.63 2.121 0M13.417 13.303L6.844 24.268c-1.097 1.828-2.216 3.645-3.267 5.5-.903 1.595-2.045 3.396-2.412 5.21-.335 1.66.408 3.486 2.167 3.894 1.616.375 3.43-.693 4.653-1.646 2.897-2.254 4.757-5.811 6.757-8.817 2.493-3.745 5.388-7.441 6.918-11.714.653-1.821-2.245-2.604-2.892-.797-1.429 3.987-4.289 7.502-6.617 10.997-1.173 1.765-2.309 3.565-3.546 5.287-.957 1.33-2.083 2.66-3.576 3.398-.128.062-.883.46-.939.436-.207-.092.188-1.006.236-1.128.358-.917.856-1.81 1.323-2.673 1.04-1.92 2.194-3.778 3.316-5.65l7.043-11.748c.995-1.66-1.598-3.17-2.59-1.514" transform="translate(-1294 -622) translate(1294 622) translate(0 .956)"/>
                    <path d="M1.508 37.398c-.257.355-.498.722-.722 1.1-.115.193-.225.391-.332.591-.052.1-.105.2-.155.301-.024.047-.047.094-.068.142-.142.308-.161.341-.201.627-.035.266-.053.367.024.668.038.146.094.29.17.42.147.256.363.468.62.614.42.238.973.298 1.43.134.469-.168.879-.448 1.122-.899.077-.143.124-.3.218-.433l-.234.303c.024-.03.05-.057.078-.083l-.304.234c.025-.018.047-.033.074-.047.325-.18.592-.542.689-.897.063-.199.071-.399.028-.598-.01-.199-.069-.385-.179-.558-.206-.32-.514-.602-.897-.689-.398-.09-.792-.05-1.155.151-.316.175-.602.473-.767.796-.063.125-.106.262-.185.38l.234-.305c-.019.026-.041.048-.066.07l.304-.235c-.034.025-.068.046-.105.064l.358-.15c-.044.018-.089.03-.138.037l.398-.053c-.029.002-.057.002-.088 0l.399.052c-.021-.004-.038-.008-.058-.016l.359.152c-.012-.005-.024-.012-.034-.019l.303.234c-.01-.007-.019-.015-.027-.025l.234.304c-.013-.017-.021-.032-.029-.05l.151.357c-.005-.013-.009-.028-.01-.042l.053.398c-.002-.023-.001-.047.004-.07l-.054.4c.005-.025.013-.048.022-.07l-.152.358c.167-.376.378-.737.589-1.089.215-.358.445-.706.689-1.045.11-.172.169-.358.179-.557.044-.2.035-.399-.028-.599-.095-.347-.364-.725-.689-.896-.348-.184-.77-.276-1.156-.15l-.358.15c-.226.133-.405.313-.538.538" transform="translate(-1294 -622) translate(1294 622) translate(0 .956)"/>
                </g>
            </g>
        </g>
    </g>
</svg>
