<svg xmlns="http://www.w3.org/2000/svg" width="89" height="112" viewBox="0 0 89 112">
    <g fill="none" fill-rule="evenodd">
        <g stroke="#FFF">
            <g>
                <path d="M88.085 94.437c0 8.605-19.606 15.581-43.792 15.581C20.106 110.018.5 103.042.5 94.438" transform="translate(-810 -235) translate(810 236)"/>
                <path stroke-dasharray="6" d="M88.085 94.437c0-9.847-19.606-17.829-43.792-17.829C20.106 76.608.5 84.59.5 94.438" transform="translate(-810 -235) translate(810 236)"/>
                <path d="M1.352 90.927L40.88.172 88.084 93.144M40.881.172L40.881 94.437" transform="translate(-810 -235) translate(810 236)"/>
                <path stroke-dasharray="6" d="M40.484 93.737h47.204" transform="translate(-810 -235) translate(810 236)"/>
                <path d="M40.994 88.347L46.805 88.347 46.805 94.007M44.158 48.668c.016.832.09 1.663.106 2.495v8.273M44.517 54.522c.516-.353 1.398-.217 1.903.16.505.374.716.914.864 1.434.3 1.07.413 2.168.333 3.254M60.354 88.382c.718-.625 1.778-.043 2.218.903.44.946.432 2.105.413 3.2" transform="translate(-810 -235) translate(810 236)"/>
                <path d="M62.617 89.463c.064-.426.132-.86.31-1.251.18-.393.49-.746.902-.876.41-.131.922.016 1.124.397" transform="translate(-810 -235) translate(810 236)"/>
            </g>
        </g>
    </g>
</svg>
