<svg xmlns="http://www.w3.org/2000/svg" width="126" height="42" viewBox="0 0 126 42">
    <g fill="none" fill-rule="evenodd">
        <g>
            <g>
                <path fill="#FFF" d="M86.061 17.184c.6-.078 1.445-.067 2.101.22.377.166.26.491.207.567-.107.176-.517.772-.79 1.167l-.143.207-.107.156c-.18.274-.39.21-.737.186-1.612-.106-3.026.997-3.026 3.618v.401l-.007 2.545-.002.552-.006 2.309v.363c0 .278-.064.524-.474.524L81.325 30h-.097c-.344 0-.506-.115-.506-.484l-.001-2.771v-2.848-2.771c0-.939-.005-2.285-.005-3.223 0-.124-.043-.476.363-.476h.606l.12.001h.2c.296 0 .393.102.479.299.033.077.316.912.457 1.34.696-.969 1.625-1.688 3.12-1.883zm17.904 9.387c.414 0 .75.387.75.865v1.7c0 .477-.336.864-.75.864h-1.072c-.414 0-.75-.387-.75-.864v-1.7c0-.478.336-.865.75-.865zm-25.468-9.428c.362 0 .503.176.503.45v2.544c-.002 3.05-.007 6.323-.032 9.192-.003.173.006.424-.328.424h-.984c-.23 0-.322-.086-.432-.32-.034-.074-.268-.65-.396-.968l-.067-.164-.015-.038c-1.134 1.339-3.442 2.07-5.438 1.588-1.863-.45-3.046-1.586-3.339-3.546-.102-.686-.094-1.401-.1-2.095-.02-2.052-.007-4.421-.007-6.473 0-.287.05-.593.53-.593h1.768c.407 0 .499.247.499.501V17.783c.007 1.019.046 7.3.066 7.606.126 2.143 2.277 2.38 3.652 1.763 1.093-.491 1.728-1.561 1.769-2.827.008-.642.016-1.685.025-2.761l.006-.807c.009-1.336.017-2.579.018-3.007v-.127s-.056-.48.445-.48H78.214zm-18.184.05c1.811-.222 3.888.278 5.232 1.845.33.383.598.644.179 1.026-.352.321-.916.805-1.091.931-.301.216-.488.056-.66-.1-.162-.147-.564-.462-.734-.576-1.137-.767-2.621-.681-3.457-.346-1.346.54-2.275 1.91-2.242 3.657.037 1.95 1.122 3.51 3.031 3.807 2.285.356 3.7-1.466 3.747-1.524.162-.198.392-.284.657-.072.056.044.845.802 1.041 1.004.214.236.139.458-.086.747-.733.943-2.368 2.436-4.767 2.408-.777-.01-1.59-.103-2.52-.5-2.665-1.136-3.88-3.924-3.605-6.735.302-3.072 2.395-5.22 5.275-5.572zm30.22 1.276c2.946-2.396 8.611-1.616 9.74 2.922.148.59.161 1.22.153 1.833l.003.006v.696c0 .31-.263.56-.586.56h-8.642c-.002.754.344 1.501.822 2.005 1.318 1.389 3.774 1.245 5.36.365.195-.108.549-.318.682-.394.355-.202.565-.098.716.134.098.15.645 1.093.717 1.203.156.239.203.502-.034.685-.09.07-1.584 1.266-3.799 1.477-1.087.104-2.188-.012-2.93-.213-2.461-.669-3.755-2.205-4.204-4.667-.238-1.739-.239-4.761 2.002-6.612zm16.303-2.141c-.073-2.883 1.185-4.653 5.04-4.278.462.045.553.287.553.542l-.031 1.438c.002.293-.19.445-.448.445-.134 0-.259-.018-.4-.027-1.69-.108-1.822.863-1.826 1.392v.118l.002.096v1.16h2.117c.261 0 .48.09.48.418v1.488c0 .347-.168.458-.42.458h-2.177v9.816c0 .312-.071.606-.533.606h-1.831c-.262 0-.524-.051-.524-.519v-.327V27.236l-.001-.244-.001-2.25v-5.164h-.354l-.131.001h-.437l-.147.001h-.383l-.095.001h-.117c-.293 0-.458-.101-.458-.422v-1.487c0-.274.152-.459.554-.459h1.568zM121.606 12c.513 0 .582.411.582.638v4.534h2.583c.314 0 .455.2.455.46v1.455c0 .33-.22.453-.526.453h-2.512v5.949c0 .547.003 1.905 1.44 1.921l.728.01c.367.006.516.327.565.522l.36 1.63c.038.27-.168.394-.386.408h-.003c-.926.037-1.678.027-2.302-.069-2.163-.333-3.29-1.605-3.29-4.045v-.28-.773l-.001-.205v-.699l-.001-.259v-.55l-.001-.29v-.608l-.001-.315v-.65l-.001-.331-.001-.676-.001-1.03v-.687l-.002-1.016v-.658l-.001-.32v-.62l-.001-.299v-.568l-.001-.268v-.732l-.001-.217-.001-.846v-.37c0-.468.316-.599.637-.598h.598l1.085-.001zm-5.413 5.143c.288 0 .521.181.521.565v11.727c0 .312-.233.565-.521.565h-1.53c-.288 0-.52-.253-.52-.565v-11.76c0-.36.232-.532.52-.532zm-21.431 2.309c-1.828-.096-3.36 1.083-3.563 2.725h6.461c-.012-1.406-1.256-2.64-2.898-2.725zM115.965 12c.414 0 .75.387.75.864v1.7c0 .478-.336.865-.75.865h-1.072c-.414 0-.75-.387-.75-.865v-1.7c0-.477.336-.864.75-.864z" transform="translate(-71 -42) translate(71 42)"/>
                <g>
                    <path fill="#FFF" d="M19.529 34.826c.482 0 .873.393.873.878V40.7c0 .485-.391.879-.873.879h-1.234c-.482 0-.873-.394-.873-.879v-4.996c0-.485.39-.878.873-.878zm.862-9.474c.34 0 .663.149.885.408l9 10.533c.203.238.3.541.278.854-.024.312-.167.597-.403.8l-1.256 1.086c-.213.183-.482.283-.76.283-.341 0-.664-.148-.886-.408l-7.652-8.955c-.172-.201-.421-.316-.685-.316-.264 0-.514.115-.686.316l-7.645 8.912c-.222.26-.544.409-.885.409-.279 0-.548-.1-.76-.283L7.68 37.905c-.237-.204-.38-.489-.403-.801-.024-.313.075-.616.278-.853l8.993-10.49c.222-.26.545-.41.885-.41zm15.65-6.285c.643 0 1.167.527 1.167 1.174v1.666c0 .647-.524 1.173-1.168 1.173H1.852c-.643 0-1.166-.526-1.166-1.173V20.24c0-.647.523-1.174 1.166-1.174zM18.91 6.516c2.94 0 5.324 2.397 5.324 5.354 0 2.957-2.383 5.354-5.323 5.354-2.94 0-5.324-2.397-5.324-5.354 0-2.957 2.384-5.354 5.324-5.354zm-14.795 3.52c.27-.403.811-.51 1.212-.24l5.53 3.725c.402.27.51.816.24 1.22l-.685 1.025c-.269.402-.81.51-1.211.24l-5.53-3.725c-.401-.27-.509-.816-.24-1.22zm28.44-.265c.4-.27.943-.162 1.212.24l.684 1.026c.27.403.162.949-.239 1.22l-5.53 3.724c-.4.27-.943.163-1.211-.24l-.685-1.025c-.27-.403-.163-.95.238-1.22zm-13.644-.105c-1.21 0-2.191.987-2.191 2.204s.98 2.203 2.19 2.203c1.211 0 2.192-.986 2.192-2.203 0-1.217-.981-2.204-2.191-2.204z" transform="translate(-71 -42) translate(71 42)"/>
                    <path fill="#FF3076" d="M18.287 4.563h1.25c.482 0 .873-.393.873-.878V.878c0-.485-.391-.878-.873-.878h-1.25c-.482 0-.873.393-.873.878v2.807c0 .485.39.878.873.878" transform="translate(-71 -42) translate(71 42)"/>
                    <path fill="#02E5FF" d="M11.072 26.774l-.684-1.025c-.269-.403-.81-.51-1.211-.24l-5.531 3.725c-.402.27-.509.816-.24 1.22l.686 1.025c.268.402.81.51 1.21.24l5.531-3.726c.4-.27.508-.815.24-1.219" transform="translate(-71 -42) translate(71 42)"/>
                    <path fill="#FEDC1A" d="M34.245 29.278l-5.532-3.726c-.4-.27-.942-.162-1.21.24l-.685 1.027c-.269.403-.162.949.24 1.219l5.53 3.725c.4.27.942.162 1.21-.24l.686-1.025c.27-.404.162-.95-.239-1.22" transform="translate(-71 -42) translate(71 42)"/>
                </g>
            </g>
        </g>
    </g>
</svg>
