<svg xmlns="http://www.w3.org/2000/svg" width="25" height="25" viewBox="0 0 25 25">
    <g fill="none" fill-rule="evenodd">
        <g fill="#FB398A" fill-rule="nonzero">
            <g>
                <g>
                    <path d="M12.5 0C5.596 0 0 5.597 0 12.5S5.596 25 12.5 25 25 19.403 25 12.5 19.404 0 12.5 0zm10.297 11.918c-2.682-.44-5.15-.464-7.4-.076-.253-.587-.517-1.172-.798-1.75 2.406-1.042 4.338-2.457 5.78-4.252 1.405 1.66 2.288 3.77 2.418 6.078zm-4.002-7.586c-1.255 1.619-2.988 2.9-5.194 3.834-1.058-1.939-2.269-3.83-3.633-5.665.811-.205 1.657-.327 2.532-.327 2.37 0 4.55.811 6.295 2.158zM7.84 3.298c1.386 1.814 2.615 3.685 3.684 5.605-2.531.745-5.553 1.127-9.046 1.151.721-2.953 2.71-5.41 5.362-6.756zM2.174 12.5l.014-.267c4.009-.005 7.467-.466 10.364-1.377.243.495.475.992.698 1.492-3.52 1.101-6.422 3.356-8.684 6.75-1.492-1.79-2.392-4.09-2.392-6.598zm3.988 8.135c2.052-3.216 4.67-5.31 7.915-6.278.967 2.521 1.676 5.115 2.128 7.771-3.488 1.345-7.242.694-10.042-1.493zm12.07.448c-.457-2.45-1.126-4.847-2-7.184 1.953-.276 4.103-.204 6.457.204-.456 2.902-2.113 5.408-4.458 6.98z" transform="translate(-221 -53) translate(123 51) translate(98 2)"/>
                </g>
            </g>
        </g>
    </g>
</svg>
