<svg xmlns="http://www.w3.org/2000/svg" width="154" height="145" viewBox="0 0 154 145">
    <g fill="none" fill-rule="evenodd" stroke-linecap="round" stroke-linejoin="round">
        <g fill="#FFF" stroke="#FFF">
            <g>
                <path d="M90.643 48c-6.44-5.37-12.084-11.925-16.63-19.319-3.11-5.056-5.79-10.897-5.369-17.006.419-6.113 5.042-12.18 10.528-11.642 4.376.433 7.612 4.595 10.2 8.556 3.042 4.65 6.001 9.94 5.665 15.684 2.287-5.203 5.652-9.81 9.763-13.36 3.746-3.237 9.082-5.573 13.105-2.78 3.637 2.528 4.434 8.296 3.07 12.821-1.78 5.89-6.263 10.173-10.553 14.149-4.666 4.324-15.11 8.572-19.779 12.897" transform="translate(-1183 -420) rotate(36 -30.44 2113.071)"/>
                <path d="M23.052 60.75c-4.982-4.14-9.349-9.193-12.865-14.892-2.405-3.898-4.479-8.4-4.153-13.11.324-4.711 3.9-9.389 8.144-8.973 3.385.333 5.889 3.541 7.89 6.595 2.354 3.585 4.643 7.662 4.383 12.09 1.769-4.01 4.372-7.562 7.552-10.299 2.898-2.495 7.026-4.296 10.138-2.142 2.814 1.948 3.43 6.394 2.374 9.882-1.376 4.54-4.844 7.842-8.163 10.906-3.609 3.334-11.69 6.609-15.3 9.942" transform="translate(-1183 -420) rotate(36 -30.44 2113.071) rotate(-22 26.5 42.25)"/>
                <path d="M64.816 81.456c-3.888-3.245-7.296-7.205-10.04-11.672-1.878-3.055-3.496-6.583-3.242-10.274.253-3.693 3.044-7.36 6.356-7.034 2.643.262 4.597 2.776 6.16 5.17 1.836 2.81 3.623 6.005 3.42 9.475 1.38-3.143 3.412-5.926 5.894-8.072 2.262-1.955 5.484-3.367 7.913-1.679 2.195 1.527 2.677 5.012 1.853 7.746-1.074 3.558-3.782 6.146-6.372 8.548-2.817 2.613-9.123 5.18-11.942 7.792" transform="translate(-1183 -420) rotate(36 -30.44 2113.071) rotate(-22 67.508 66.956)"/>
            </g>
        </g>
    </g>
</svg>
