<svg xmlns="http://www.w3.org/2000/svg" width="25" height="20" viewBox="0 0 25 20">
    <g fill="none" fill-rule="evenodd">
        <g fill="#1A1918">
            <g>
                <path d="M55.965 9.08c.03-.31-.087-.615-.316-.823l-2.333-2.834V5h7.248l5.602 12.381L71.09 5H78v.423l-1.996 1.928c-.172.133-.257.35-.222.565v14.169c-.035.214.05.431.222.564l1.95 1.928V25h-9.805v-.423l2.02-1.976c.198-.199.198-.258.198-.563V10.585l-5.614 14.369h-.758l-6.537-14.369v9.63c-.054.405.08.813.362 1.105l2.626 3.21v.424H53v-.424l2.626-3.21c.281-.293.406-.704.339-1.105V9.08z" transform="translate(-176 -56) translate(123 51)"/>
            </g>
        </g>
    </g>
</svg>
