<svg xmlns="http://www.w3.org/2000/svg" width="28" height="38" viewBox="0 0 28 38">
    <g fill="none" fill-rule="evenodd">
        <g fill="#FFF">
            <g>
                <path d="M9.127 26.22c1.164-4.285 1.825-8.705 1.979-13.143.067-1.93-2.933-1.928-3 0-.145 4.182-.775 8.308-1.872 12.346-.506 1.865 2.387 2.661 2.893.797" transform="translate(-756 -474) translate(756 474.694)"/>
                <path d="M10.848 13.692c5.543-3.33 10.846-7.03 15.906-11.056.635-.504.528-1.594 0-2.12-.627-.628-1.485-.507-2.121 0-4.858 3.863-9.978 7.39-15.3 10.586-1.652.992-.146 3.588 1.515 2.59" transform="translate(-756 -474) translate(756 474.694)"/>
                <path d="M24.034 1.5c.711 6.032.917 12.108.617 18.174-.096 1.93 2.904 1.925 3 0 .3-6.066.094-12.142-.617-18.174-.095-.804-.62-1.5-1.5-1.5-.737 0-1.595.69-1.5 1.5" transform="translate(-756 -474) translate(756 474.694)"/>
                <path d="M25.065 19.224l-11.646 7.5c-.681.438-.96 1.332-.54 2.053.397.677 1.37.978 2.053.538l11.647-7.501c.68-.438.96-1.331.538-2.052-.397-.677-1.368-.978-2.052-.538M23.439 2.08l-7.5 14.926c-.864 1.72 1.723 3.241 2.59 1.514l7.5-14.927c.865-1.72-1.722-3.24-2.59-1.514" transform="translate(-756 -474) translate(756 474.694)"/>
                <path d="M16.728 16.715c-.164.02-.33.04-.494.058-.142.017-.338.026-.437.058l-.178.076c-.187.06-.348.163-.484.31-.096.111-.187.228-.271.35-.096.138-.158.328-.213.471-.015.04-.027.08-.033.121-.026.148-.05.305-.06.455-.002.023-.002.047-.001.071 0 .023.004.047.007.071.018.146.03.296.06.441.01.048.025.094.042.14.057.147.123.325.207.471.085.147.204.286.309.412.029.037.06.07.096.101.106.093.224.177.337.262.023.018.047.034.07.05l.057.03c.13.062.269.121.404.171.16.06.374.068.52.086.045.005.087.006.13.003.143-.01.364-.026.524-.08.366-.12.574-.248.862-.502.03-.027.06-.059.086-.092.104-.128.22-.258.3-.405.1-.182.193-.384.237-.589.035-.167.055-.34.069-.509.004-.046.004-.092 0-.137-.011-.172-.032-.345-.07-.514-.023-.104-.072-.202-.114-.3-.04-.094-.074-.198-.132-.285-.078-.116-.171-.227-.258-.336l-.053-.06c-.27-.263-.524-.39-.873-.517-.042-.015-.086-.025-.131-.03-.147-.023-.363-.07-.535-.058-.183.015-.371.031-.548.081-.175.05-.342.128-.503.207-.05.024-.096.053-.141.085-.137.1-.293.207-.415.333-.021.022-.042.045-.061.07-.092.115-.19.23-.271.354-.015.023-.03.047-.042.073-.068.134-.126.28-.18.42-.062.168-.073.383-.091.545-.006.057-.007.113 0 .17-.008.206.036.4.129.578.06.186.164.347.31.482.136.147.297.25.483.311.179.094.37.137.578.13l.399-.055c.254-.07.475-.2.662-.386l.234-.303c.136-.234.205-.486.205-.757-.007-.057-.007-.113 0-.17l-.054.4c.009-.056.023-.11.045-.16-.051.118-.102.237-.152.357.027-.06.06-.118.1-.17l-.233.302c.045-.057.095-.108.153-.153l-.304.234c.063-.048.13-.087.202-.119l-.358.151c.066-.028.135-.047.207-.058l-.4.053c.06-.007.122-.008.182-.002l-.4-.053c.056.007.109.021.16.042l-.357-.15c.046.02.089.044.13.074l-.303-.234c.039.03.074.065.105.105l-.235-.304c.032.043.058.09.08.138l-.15-.358c.025.062.042.127.05.194l-.052-.398c.008.073.007.146-.001.22l.052-.399c-.01.077-.03.153-.06.225l.15-.358c-.026.063-.06.121-.1.176l.234-.304c-.036.045-.076.086-.122.122.1-.079.202-.157.304-.235-.04.03-.081.053-.126.073l.358-.152c-.048.02-.097.032-.148.04.132-.019.266-.036.399-.054-.05.005-.097.004-.145-.002l.399.053c-.047-.007-.092-.02-.136-.037l.359.151c-.058-.024-.111-.056-.16-.094l.304.235c-.054-.043-.101-.092-.143-.146l.235.303c-.045-.059-.082-.122-.111-.19l.15.358c-.024-.064-.044-.129-.054-.196l.054.4c-.01-.063-.01-.124-.002-.185l-.054.398c.008-.05.02-.1.04-.148l-.15.358c.017-.039.039-.076.065-.11l-.235.303.029-.035-1.061.44c.178-.02.355-.042.532-.063.207.008.399-.035.578-.129.187-.06.347-.164.484-.31.145-.136.249-.297.309-.483.094-.179.137-.37.129-.578l-.053-.398c-.071-.255-.2-.476-.385-.663l-.304-.234c-.235-.136-.487-.204-.758-.205M3.834 26.08c2.042 1.398 4.54 1.724 6.704 2.852 2.165 1.13 4.239 2.71 6.813 2.55.808-.05 1.5-.653 1.5-1.5 0-.773-.688-1.55-1.5-1.5-2.092.13-3.855-1.447-5.663-2.324-2.067-1.002-4.428-1.359-6.34-2.668-.669-.458-1.664-.126-2.052.538-.435.742-.133 1.593.538 2.052" transform="translate(-756 -474) translate(756 474.694)"/>
                <path d="M2.589 24.26c-.124.44-.261.877-.414 1.308-.082.23-.168.458-.258.684l-.103.254c-.062.148-.047.113.045-.105-.025.055-.05.11-.074.167-.37.837-.797 1.646-1.276 2.425-.411.669-.167 1.68.538 2.052.732.387 1.613.176 2.053-.538 1.039-1.69 1.843-3.54 2.382-5.45.212-.754-.261-1.665-1.047-1.844-.797-.181-1.618.239-1.846 1.048M15.638 30.477c-.703 1.16-1.27 2.409-1.703 3.694-.12.356-.035.839.15 1.156.183.31.539.608.898.69.384.087.814.068 1.155-.152.34-.22.56-.512.689-.896.13-.388.277-.772.435-1.15l-.151.359c.319-.756.692-1.486 1.118-2.187.2-.33.253-.786.15-1.156-.095-.348-.364-.725-.688-.896-.73-.385-1.618-.18-2.053.538" transform="translate(-756 -474) translate(756 474.694)"/>
                <path d="M1.043 30.88c4.608 1.477 8.475 4.762 13.318 5.598.798.137 1.617-.213 1.846-1.048.198-.722-.245-1.706-1.048-1.845-4.815-.831-8.718-4.123-13.319-5.597-1.843-.59-2.632 2.306-.797 2.893" transform="translate(-756 -474) translate(756 474.694)"/>
            </g>
        </g>
    </g>
</svg>
