<svg xmlns="http://www.w3.org/2000/svg" width="147" height="157" viewBox="0 0 147 157">
    <g fill="none" fill-rule="evenodd">
        <g stroke="#FFF" stroke-width="2">
            <g>
                <path d="M134.075 153.946L.024 87.45C1.557 49.517 24.382 13.427 59.97.21 90.86 46.06 119.457 95.5 142.882 145.575" transform="translate(-814 -183) translate(815 184)"/>
                <path d="M132.78 154.348c2.189.59 4.54.813 6.71.16 2.17-.654 4.123-2.302 4.714-4.49.59-2.187-.482-4.825-2.602-5.627M16.535 95.127c-2.616-17.063 1.678-35.086 11.71-49.136 10.03-14.05 25.68-23.966 42.667-27.035M32.098 100.496c.964 2.385 5.077 1.484 5.821-.98.743-2.461-.865-5.048-2.832-6.706-1.968-1.657-4.362-2.812-6.087-4.72-1.724-1.908-2.568-5.04-.909-7.005 2.161-2.561 6.319-1.16 9.158.619 4.722 2.96 9.368 6.585 14.905 7.214 5.537.63 12.061-3.51 11.346-9.036-.489-3.783-3.999-6.386-7.398-8.117-3.4-1.73-7.194-3.218-9.341-6.372-2.146-3.153-1.272-8.607 2.472-9.336 5.143-1.002 9.743 7.35 14.199 4.593 3.091-1.912 1.605-6.63-.116-9.83-1.722-3.201-2.813-8.155.502-9.644 3.693-1.66 8.006 3.709 11.562 1.774 2.839-1.545 1.908-5.814.502-8.724s-2.65-6.992-.023-8.875M83.817 74.658l-.412 1.163c-2.244 4.195-.478 10.053 3.713 12.308 4.189 2.255 10.052.502 12.317-3.682 2.265-4.185.527-10.05-3.652-12.327-4.18-2.274-10.05-.55-12.335 3.622M68.186 118.83c5.005-7.204 15.756-9.644 23.38-5.308 7.625 4.337 11.023 14.825 7.39 22.808" transform="translate(-814 -183) translate(815 184)"/>
            </g>
        </g>
    </g>
</svg>
