<svg xmlns="http://www.w3.org/2000/svg" width="178" height="168" viewBox="0 0 178 168">
    <g fill="none" fill-rule="evenodd">
        <g stroke="#FFF">
            <g>
                <path d="M.431 75.536L21.099 110.807M41.194 51.65L61.862 86.921" transform="translate(-710 -298) translate(710 298)"/>
                <path stroke-linecap="round" stroke-linejoin="round" d="M27.607 59.88L41.311 51.85" transform="translate(-710 -298) translate(710 298)"/>
                <g>
                    <path stroke-linecap="round" stroke-linejoin="round" d="M.52 74.98l14.288-8.373c-3.018-.239-6.02-2.157-8.327-4.117-2.307-1.96-3.748-5.085-3.19-8.06.474-2.527 2.267-4.618 4.285-6.209 2.867-2.26 6.42-3.784 10.07-3.743 3.652.04 11.565 2.337 9.976 14.72M48.088 94.124L61.792 86.095M21.002 109.932l14.288-8.373c-3.018-.238-6.02-2.156-8.328-4.116-2.307-1.96-3.747-5.085-3.19-8.06.475-2.527 2.267-4.618 4.285-6.209 2.868-2.26 6.42-3.784 10.07-3.743 3.653.04 11.566 2.337 9.977 14.72" transform="translate(-710 -298) translate(710 298) translate(0 .708)"/>
                    <path d="M176.595 37.897L159.824.615M133.509 57.281L116.737 19.999" transform="translate(-710 -298) translate(710 298) translate(0 .708)"/>
                    <path stroke-linecap="round" stroke-linejoin="round" d="M147.899 50.554L133.415 57.071M176.523 37.737l-15.103 6.795c2.976.56 5.755 2.788 7.839 4.984 2.084 2.197 3.182 5.457 2.308 8.357-.741 2.46-2.747 4.347-4.924 5.713-3.094 1.94-6.788 3.075-10.414 2.643-3.626-.43-11.248-3.562-8.342-15.703M131.279 13.609L116.794 20.125M159.903.792L144.8 7.586c2.974.561 5.754 2.79 7.838 4.985 2.084 2.196 3.181 5.457 2.308 8.356-.74 2.461-2.746 4.348-4.924 5.713-3.093 1.941-6.788 3.075-10.415 2.644-3.625-.43-11.246-3.563-8.341-15.703" transform="translate(-710 -298) translate(710 298) translate(0 .708)"/>
                </g>
                <path d="M139.471 124.53L138.882 166.33" transform="translate(-710 -298) translate(710 298)"/>
                <path stroke-linecap="round" stroke-linejoin="round" d="M125.121 124.328L139.081 124.524" transform="translate(-710 -298) translate(710 298)"/>
                <g stroke-linecap="round" stroke-linejoin="round">
                    <path d="M18.556 17.184l14.556.204c-2.161-1.553-3.546-4.36-4.39-6.885-.843-2.524-.504-5.53 1.27-7.514C31.496 1.305 33.796.55 36.038.27c3.186-.396 6.55.075 9.278 1.768 2.728 1.691 7.635 7.02.804 15.61M45.924 59.303L59.884 59.499M18.359 58.867l14.556.205c-2.161-1.553-3.546-4.361-4.39-6.886-.843-2.524-.504-5.529 1.27-7.513 1.504-1.685 3.804-2.441 6.046-2.719 3.186-.396 6.55.075 9.278 1.767 2.727 1.692 7.635 7.02.804 15.61M18.309 31.223L18.609 17.265M17.667 58.784l.313-14.554c-1.569 2.15-4.387 3.514-6.917 4.338-2.53.824-5.534.464-7.504-1.324-1.674-1.519-2.413-3.823-2.675-6.067-.372-3.188.124-6.549 1.836-9.265 1.712-2.715 7.077-7.581 15.615-.689" transform="translate(-710 -298) translate(710 298) translate(79 106.708)"/>
                </g>
            </g>
        </g>
    </g>
</svg>
