<svg xmlns="http://www.w3.org/2000/svg" width="215" height="312" viewBox="0 0 215 312">
    <g fill="none" fill-rule="evenodd">
        <g stroke="#FFF">
            <g>
                <path d="M133.363 12.704c2.03-2.338 1.915-7.308-1.584-10.402-2.498-2.21-6.832-2.328-9.73-.679-19.126 10.888-38.252 21.773-57.379 32.66-2.655 1.511-3.9 4.947-2.939 7.847.96 2.901 2.99 5.303 4.974 7.627 2.161 2.53 5.296 5.326 8.37 4.052 1.618-.67 2.638-2.386 2.838-4.125.201-1.74-.306-3.492-1.035-5.084-2.35-5.128-10.117-9.488-12.689-10.282" transform="translate(-1123 -251) translate(1123 251)"/>
                <path d="M76.129 53.344c-.072.037-.131.118-.212.118l57.602-40.941M205.639 272.106c2.855.622 6.918-1.727 7.895-6.026.697-3.07-1.171-6.71-3.85-8.362-17.68-10.9-35.36-21.8-53.041-32.698-2.454-1.513-5.862-.985-7.828 1.124-1.966 2.109-3.034 4.878-4.06 7.573-1.114 2.936-2.008 6.798.44 8.766 1.288 1.036 3.172 1.102 4.702.479 1.53-.622 2.752-1.835 3.738-3.16 3.18-4.27 4.766-12.123 2.762-15.164" transform="translate(-1123 -251) translate(1123 251)"/>
                <path d="M146.058 243.144c-.064-.043-.157-.055-.195-.121l59.998 29.129M70.345 43.708c-8.33-1.038-17.045 4.062-20.223 11.83-3.176 7.77-.532 17.514 6.138 22.612 4.422 3.378 10.032 4.671 15.249 6.607 17.117 6.355 31.05 20.75 36.842 38.066 4.69 14.03 3.739 30.656-5.534 42.182-9.274 11.525-27.822 15.626-39.497 6.543-8.1-6.3-11.434-17.445-10.122-27.624 1.31-10.178 6.68-19.45 13.294-27.299 7.107-8.433 16.106-15.73 26.77-18.543 15.334-4.043 32.622 2.358 42.428 14.822 9.805 12.464 12.088 30.145 6.735 45.073-5.352 14.928-17.86 26.876-32.662 32.565-15.406 5.918-32.402 5.32-48.874 6.352s-33.995 4.345-45.703 15.976C5.756 222.237 1.516 235.8.66 249.065c-1.15 17.85 3.802 36.783 16.579 49.3 12.777 12.517 34.149 16.774 49.169 7.063 10.482-6.776 16.415-18.894 19.153-31.072 2.737-12.176 2.767-24.779 4.235-37.173 1.318-11.123 4.942-23.618 15.094-28.35 8.155-3.8 18.156-1.053 25.248 4.482 7.09 5.537 11.874 14.415 20.39 21.239" transform="translate(-1123 -251) translate(1123 251)"/>
            </g>
        </g>
    </g>
</svg>
