<svg xmlns="http://www.w3.org/2000/svg" width="97" height="29" viewBox="0 0 97 29">
    <g fill="none" fill-rule="evenodd">
        <g fill="#FFF" fill-rule="nonzero">
            <g>
                <path d="M40.58 23.603c-2.517 0 0 0 0 0-2.517 0-3.846-1.323-3.846-3.824v-7.217H34.47V9.37h2.263V5.574h3.592V9.37h2.771v3.192h-2.771v6.24c0 .89.452 1.552 1.244 1.552.537 0 1.046-.201 1.244-.431l.764 2.789c-.537.489-1.499.891-2.998.891zm31.229-7.37c0 4.49-2.51 7.082-5.966 7.082-1.59 0-3.039-.67-4.154-2.063v6.858h-3.54V9.515h3.54v1.7c1.032-1.31 2.51-2.035 4.154-2.035 3.457 0 5.966 2.565 5.966 7.054zm-7.023 3.764c2.006 0 3.38-1.645 3.38-4.07 0-2.397-1.374-4.043-3.38-4.043-1.126 0-2.39.664-2.995 1.588v4.909c.577.895 1.869 1.616 2.995 1.616zm16.538 3.318c-1.589 0 0 0 0 0-1.589 0-3.038-.67-4.153-2.063v6.858h-3.54V9.515h3.54v1.7c1.031-1.31 2.509-2.035 4.153-2.035 3.457 0 5.966 2.565 5.966 7.054 0 4.488-2.509 7.081-5.966 7.081zm-1.056-3.318c2.006 0 3.38-1.645 3.38-4.07 0-2.397-1.374-4.043-3.38-4.043-1.127 0-2.39.664-2.995 1.588v4.909c.577.895 1.868 1.616 2.995 1.616zm11.637 3.606h-3.704V9.53h3.704v1.894c1.02-1.224 2.742-2.244 4.492-2.244v3.613c-.263-.058-.584-.087-1.021-.087-1.225 0-2.858.699-3.47 1.602v9.295zm-41.967 0c-4.533 0 0 0 0 0-4.533 0-7.27-3.328-7.27-7.226 0-3.897 2.737-7.197 7.27-7.197 4.563 0 7.3 3.3 7.3 7.197 0 3.898-2.737 7.226-7.3 7.226zm0-2.704c2.36 0 3.657-1.877 3.657-4.071 0-2.166-1.297-4.042-3.657-4.042-2.33 0-3.628 1.876-3.628 4.042 0 2.194 1.298 4.07 3.628 4.07zM13.017.68c1.288-.078 2.59-.003 3.852.271 3.02.648 5.787 2.4 7.698 4.836 1.273 1.628 2.195 3.542 2.615 5.573.482 2.363.364 4.855-.388 7.149-.881 2.622-2.562 4.976-4.787 6.612-1.89 1.41-4.149 2.324-6.492 2.565-2.47.272-5.026-.107-7.272-1.191-2.002-.952-3.779-2.394-5.093-4.19-.697-.947-1.278-1.982-1.714-3.076-.944-2.365-1.16-5-.722-7.504.357-2.018 1.207-3.937 2.418-5.583 1.476-2.03 3.543-3.61 5.86-4.547 1.282-.52 2.647-.816 4.025-.915zm.15 4.837c-2.618 2.639-5.235 5.276-7.85 7.916-.43.415-.434 1.184-.005 1.6.527.534 1.055 1.069 1.586 1.599.417.42 1.17.41 1.576-.021 1.088-1.1 2.186-2.19 3.264-3.3.01.06.019.12.016.18V21.9c0 .148-.009.298.02.445.1.505.577.91 1.091.904.745.003 1.49.002 2.235 0 .456.006.88-.312 1.043-.735.092-.238.069-.498.072-.748.002-2.82-.005-5.64.003-8.46 1.05 1.07 2.11 2.129 3.164 3.195.112.113.226.228.364.31.348.207.816.194 1.151-.038.14-.098.256-.224.376-.344l1.204-1.214c.134-.136.278-.267.368-.438.224-.428.156-1.003-.194-1.343-2.608-2.633-5.22-5.262-7.828-7.894-.415-.482-1.23-.494-1.657-.023 0 0 .427-.47 0 0z" transform="translate(-395 -929) translate(395 929)"/>
            </g>
        </g>
    </g>
</svg>
