<svg xmlns="http://www.w3.org/2000/svg" width="161" height="100" viewBox="0 0 161 100">
    <g fill="none" fill-rule="evenodd">
        <g stroke="#FFF">
            <g>
                <path d="M146.495 0.196L146.495 85.743 0.843 85.978 146.367 0.431" transform="translate(-1165 -478) translate(1166 478)"/>
                <path d="M137.251 84.658L137.251 75.409 147.473 74.54" transform="translate(-1165 -478) translate(1166 478)"/>
                <g>
                    <path d="M.165 72.997c2.029 1.527 3.035 4.297 2.457 6.771M124.162.444c1.485 3.181 5.342 5.05 8.759 4.244M138.3 30.776c1.396.148 2.628 1.283 2.89 2.66.26 1.379-.468 2.886-1.711 3.535M143.646 30.399c-.715.787-1.277 1.762-1.357 2.822-.08 1.06.403 2.2 1.343 2.697.942.496 2.3.138 2.707-.844M43.883 34.097c-.79-.213-.903-1.457-.265-1.967.639-.51 1.638-.324 2.24.23.6.553.879 1.373 1.039 2.175.295 1.49.256 3.023.215 4.541 1.676-1.797 3.35-3.594 5.027-5.39M51.035 29.338c1.018-1.069 2.946-1.062 3.957.014 1.01 1.076.896 3.001-.236 3.95M56.818 25.796c-.52.965-.883 2.063-.735 3.15.147 1.086.904 2.139 1.974 2.376 1.071.237 2.324-.596 2.305-1.692M62.99 87.234c1.197-.4 2.651.379 2.983 1.599.331 1.218-.527 2.627-1.763 2.89M68.781 86.878c-.78.52-1.495 1.205-1.82 2.085-.326.88-.175 1.979.538 2.588.714.609 1.996.483 2.422-.353M51.266 86.073c.742-.588 2.192-.519 2.84.171.65.69.611 1.455-.017 2.164-.627.71-1.218.891-2.538.851" transform="translate(-1165 -478) translate(1166 478) translate(13 5.561)"/>
                    <path d="M51.266 89.316c1.163-.265 2.448-.043 3.096.647.65.69.651 1.837.023 2.546-.627.71-1.712.777-3.12.51M56.344 88.42l1.695-.057 2.373 3.892.094-7.46 10.436-.013" transform="translate(-1165 -478) translate(1166 478) translate(13 5.561)"/>
                </g>
            </g>
        </g>
    </g>
</svg>
