<svg xmlns="http://www.w3.org/2000/svg" width="31" height="25" viewBox="0 0 31 25">
    <g fill="none" fill-rule="evenodd">
        <g fill="#03A9F4" fill-rule="nonzero">
            <path d="M366.75 77c11.697 0 18.096-9.62 18.096-17.96 0-.274 0-.546-.019-.817 1.245-.892 2.319-2 3.173-3.268-1.16.511-2.392.847-3.652.994 1.327-.789 2.32-2.029 2.796-3.492-1.249.736-2.614 1.254-4.039 1.532-2.409-2.541-6.437-2.664-9-.273-1.65 1.541-2.352 3.84-1.84 6.031-5.113-.255-9.877-2.652-13.107-6.594-1.688 2.884-.825 6.573 1.97 8.425-1.012-.03-2.003-.3-2.888-.79v.08c.002 3.005 2.136 5.593 5.103 6.188-.937.254-1.92.29-2.871.108.832 2.572 3.22 4.333 5.941 4.384-2.252 1.757-5.034 2.71-7.899 2.708-.505-.002-1.01-.031-1.514-.091 2.91 1.852 6.293 2.835 9.75 2.83" transform="translate(-357 -52)"/>
        </g>
    </g>
</svg>
